# xmcd CD database file
#
# Track frame offsets:
#	150
#	21059
#	36353
#	57096
#	78580
#	94473
#	116296
#	134296
#	154429
#	171754
#	189718
#	211164
#	228476
#	244319
#	262239
#
# Disc length: 3694 seconds
#
# Revision: 3
# Processed by: cddbd v1.5.2PL0 Copyright (c) Steve Scherf et al.
# Submitted via: CDex 1.70beta2
#
DISCID=d60e6c0f
DTITLE=Various Artist - Los Mejores del Merengue
DYEAR=2008
DGENRE=Merengue
TTITLE0=Karis - La Amas Como Yo
TTITLE1=Jandy Ventura and Los Potros - Un Bombon
TTITLE2=Fulanito feat.Jose Penã Suazo y La banda Gorda - Dejalo Ahí (ponmelo ahí)
TTITLE3=Kinito Mendez - El Caso
TTITLE4=El Equipito De La Bachata - Te Quiero
TTITLE5=Eddy Herrera - Quisiera Mentirte
TTITLE6=El Equipito Del Merengue - Me Enamora
TTITLE7=Sabor Latino - Za, Za, ZA (mesa que mas aplaude)
TTITLE8=El Gringo De La Bachata - Santo Domingo Querido
TTITLE9=Edwin Rivera - Llegar A Ser Feliz
TTITLE10=Johnny Ventura - O Tu O Yo
TTITLE11=Jandy Ventura and Los Potros - Muevelo
TTITLE12=Opalo - Cuerpo Enojado
TTITLE13=Ilegales and Jandy Ventura - Muero
TTITLE14=Marco Hernandez and Hector Anibal - Robacorazones
EXTD=YEAR: 2008
EXTT0=
EXTT1=
EXTT2=
EXTT3=
EXTT4=
EXTT5=
EXTT6=
EXTT7=
EXTT8=
EXTT9=
EXTT10=
EXTT11=
EXTT12=
EXTT13=
EXTT14=
PLAYORDER=
